<svg xmlns="http://www.w3.org/2000/svg" version="1.1" xmlns:xlink="http://www.w3.org/1999/xlink" xmlns:svgjs="http://svgjs.dev/svgjs" width="2000" height="1999" viewBox="0 0 2000 1999"><g transform="matrix(1,0,0,1,-0.431486880466764,-0.4312711370263287)"><svg viewBox="0 0 343 343" data-background-color="#121212" preserveAspectRatio="xMidYMid meet" height="1999" width="2000" xmlns="http://www.w3.org/2000/svg" xmlns:xlink="http://www.w3.org/1999/xlink"><g id="tight-bounds" transform="matrix(1,0,0,1,0.0740000000000407,0.07400000000001228)"><svg viewBox="0 0 342.85155851775386 342.85155851775386" height="342.85155851775386" width="342.85155851775386"><g><svg></svg></g><g><svg viewBox="0 0 342.85155851775386 342.85155851775386" height="342.85155851775386" width="342.85155851775386"><g><path d="M0 171.426c0-94.676 76.75-171.426 171.426-171.426 94.676 0 171.426 76.75 171.426 171.426 0 94.676-76.75 171.426-171.426 171.426-94.676 0-171.426-76.75-171.426-171.426zM171.426 335.708c90.731 0 164.282-73.552 164.282-164.282 0-90.731-73.552-164.282-164.282-164.282-90.731 0-164.282 73.552-164.282 164.282 0 90.731 73.552 164.282 164.282 164.282z" data-fill-palette-color="tertiary" fill="#ffffff" stroke="transparent"></path><ellipse rx="164.56874808852186" ry="164.56874808852186" cx="171.42577925887693" cy="171.42577925887693" fill="#ffffff" stroke="transparent" stroke-width="0" fill-opacity="1" data-fill-palette-color="tertiary"></ellipse></g><g transform="matrix(1,0,0,1,64.84655864529837,131.8188573696025)"><svg viewBox="0 0 213.1584412271571 79.21384377854885" height="79.21384377854885" width="213.1584412271571"><g><svg viewBox="0 0 213.1584412271571 79.21384377854885" height="79.21384377854885" width="213.1584412271571"><g><svg viewBox="0 0 213.1584412271571 79.21384377854885" height="79.21384377854885" width="213.1584412271571"><g><svg viewBox="0 0 213.1584412271571 79.21384377854885" height="79.21384377854885" width="213.1584412271571"><g id="textblocktransform"><svg viewBox="0 0 213.1584412271571 79.21384377854885" height="79.21384377854885" width="213.1584412271571" id="textblock"><g><svg viewBox="0 0 213.1584412271571 79.21384377854885" height="79.21384377854885" width="213.1584412271571"><g transform="matrix(1,0,0,1,0,0)"><svg width="213.1584412271571" viewBox="3.98 -35.16 94.59869880585659 35.16" height="79.21384377854885" data-palette-color="#121212"><g transform="matrix(1,0,0,1,0,0)"><g><svg width="15.265799203904391" viewBox="1.19 -36.86 66.10000000000001 37.37" height="8.63134765625" data-palette-color="#121212" id="scriptelement" x="83.3128996019522" y="-35.16"><path d="M18.55-28.05L9.43 0 1.19 0 13.74-36.36 23.65-36.36 36.19 0 27.95 0 18.84-28.05 18.55-28.05ZM8.91-8.29L8.91-14.29 28.37-14.29 28.37-8.29 8.91-8.29ZM66.79-25.91L59.43-25.91Q59.21-28.05 57.6-29.24 55.98-30.43 53.21-30.43L53.21-30.43Q51.33-30.43 50.03-29.91 48.74-29.39 48.05-28.46 47.37-27.54 47.37-26.37L47.37-26.37Q47.33-25.39 47.79-24.66 48.24-23.93 49.04-23.41 49.84-22.89 50.89-22.51 51.93-22.12 53.12-21.86L53.12-21.86 56.39-21.08Q58.77-20.54 60.76-19.66 62.75-18.77 64.2-17.47 65.66-16.18 66.47-14.42 67.27-12.66 67.29-10.39L67.29-10.39Q67.27-7.05 65.6-4.61 63.92-2.17 60.77-0.83 57.61 0.51 53.18 0.51L53.18 0.51Q48.77 0.51 45.51-0.83 42.26-2.18 40.44-4.84 38.62-7.49 38.53-11.42L38.53-11.42 45.97-11.42Q46.09-9.59 47.02-8.37 47.96-7.16 49.53-6.54 51.1-5.93 53.09-5.93L53.09-5.93Q55.04-5.93 56.49-6.5 57.93-7.07 58.73-8.08 59.53-9.09 59.53-10.4L59.53-10.4Q59.53-11.63 58.81-12.46 58.09-13.3 56.72-13.88 55.34-14.47 53.35-14.95L53.35-14.95 49.39-15.94Q44.8-17.06 42.13-19.44 39.47-21.82 39.49-25.85L39.49-25.85Q39.47-29.15 41.25-31.62 43.04-34.09 46.16-35.48 49.29-36.86 53.26-36.86L53.26-36.86Q57.31-36.86 60.34-35.48 63.37-34.09 65.05-31.62 66.74-29.15 66.79-25.91L66.79-25.91Z" opacity="1" transform="matrix(1,0,0,1,0,0)" fill="#000000" class="undefined-123" data-fill-palette-color="quaternary" id="yy-123"></path></svg></g></g><path d="M13.67-15.33L13.67 0 3.98 0 3.98-35.16 13.67-35.16 13.67-19.8 26.51-19.8 26.51-35.16 36.21-35.16 36.21 0 26.51 0 26.51-15.33 13.67-15.33ZM53.85-13.13L53.85 0 44.16 0 44.16-35.16 61.45-35.16Q63.89-35.16 66.16-34.58 68.43-34.01 70.18-32.78 71.92-31.54 72.96-29.59 74-27.64 74-24.85L74-24.85Q74-22.68 73.08-20.76 72.17-18.85 70.64-17.35 69.11-15.84 67.14-14.86 65.16-13.87 63.03-13.55L63.03-13.55Q63.99-11.94 65.02-10.5 66.06-9.06 67.12-7.8 68.19-6.54 69.24-5.48 70.29-4.42 71.24-3.54L71.24-3.54Q73.48-1.49 75.68 0L75.68 0 63.6 0Q62.13-1.39 60.81-3.34L60.81-3.34Q59.69-5 58.55-7.46 57.42-9.91 56.81-13.13L56.81-13.13 53.85-13.13ZM64.16-24.85L64.16-24.85Q64.16-28.39 62.44-30.05 60.72-31.71 57.27-31.71L57.27-31.71 53.85-31.71 53.85-16.46 57.27-16.46Q59.1-16.46 60.41-17.15 61.72-17.85 62.55-19.01 63.38-20.17 63.77-21.68 64.16-23.19 64.16-24.85Z" opacity="1" transform="matrix(1,0,0,1,0,0)" fill="#000000" class="wordmark-text-0" data-fill-palette-color="quaternary" id="text-0"></path></svg></g></svg></g></svg></g></svg></g></svg></g></svg></g></svg></g></svg></g><defs></defs></svg><rect width="342.85155851775386" height="342.85155851775386" fill="none" stroke="none" visibility="hidden"></rect></g></svg></g></svg>